<svg width="41" height="68" viewBox="0 0 41 68" fill="none" xmlns="http://www.w3.org/2000/svg">
<path fill-rule="evenodd" clip-rule="evenodd" d="M20.4511 0C18.8662 1.80226 17.8948 4.16692 17.8948 6.74889C17.997 12.4368 18.6872 18.112 18.7511 23.8C18.879 29.0917 17.294 34.0639 15.3639 38.9083C14.712 40.2504 14.0218 41.5669 13.3188 42.8835L11.2737 42.4617C9.42032 42.091 8.21882 40.3015 8.58949 38.4609C8.92182 36.8376 10.3406 35.7256 11.9256 35.7128L12.6669 35.7895L11.0053 21.9083C10.4557 15.7218 7.27295 10.2895 2.56921 6.74892C1.75117 6.14817 0.894774 5.59854 3.8147e-05 5.10005V54.4638H11.4016C12.2579 59.0908 14.8015 63.1172 18.3805 65.8908C19.2369 66.466 19.9399 67.2457 20.4512 68.1532C20.9624 67.2457 21.6655 66.466 22.5218 65.8908C26.1008 63.1171 28.6444 59.0908 29.5008 54.4638H40.9023V5.10005C40.0076 5.59855 39.1512 6.14817 38.3331 6.74892C33.6294 10.2895 30.4466 15.7219 29.8971 21.9083L28.2354 35.7895L28.9768 35.7128C30.5617 35.7256 31.9805 36.8376 32.3128 38.4609C32.6835 40.3015 31.482 42.091 29.6286 42.4617L27.5835 42.8835C26.8805 41.5669 26.1903 40.2504 25.5384 38.9083C23.6083 34.0639 22.0234 29.0918 22.1512 23.8C22.2151 18.112 22.9053 12.4368 23.0076 6.74889C23.0076 4.16693 22.0362 1.80226 20.4512 0H20.4511ZM3.4128 12.2196C5.62407 14.8015 7.10678 18.0226 7.54136 21.5759L8.90903 33.0414C7.17069 33.9105 5.84137 35.4955 5.34287 37.4128H3.4128V12.2195V12.2196ZM37.4895 12.2196V37.4128H35.5594C35.0609 35.4955 33.7316 33.9106 31.9933 33.0414L33.3609 21.576C33.7955 18.0226 35.2782 14.8015 37.4895 12.2196V12.2196ZM20.4511 35.2526C21.3587 38.2436 22.6241 41.0812 24.1835 43.7271C22.7008 44.1872 21.397 45.0692 20.4511 46.2451C19.5053 45.0564 18.2015 44.1872 16.7188 43.7271C18.2782 41.0812 19.5436 38.2436 20.4511 35.2526ZM3.4128 40.8256H5.34287C5.95641 43.1775 7.78423 45.0436 10.1233 45.6827L11.7594 46.0662C11.3248 47.6511 11.082 49.3256 11.082 51.0512H3.41282V40.8256L3.4128 40.8256ZM35.5594 40.8256H37.4895V51.0511H29.8203C29.8203 49.3256 29.5775 47.6511 29.1429 46.0662L30.779 45.6827C33.1053 45.0436 34.9459 43.1774 35.5594 40.8256L35.5594 40.8256ZM15.0955 46.8459C17.1534 47.1399 18.7511 48.9038 18.7511 51.0512H14.4947C14.4947 49.594 14.712 48.188 15.0955 46.8459ZM25.8067 46.8459C26.1902 48.188 26.4075 49.594 26.4075 51.0512H22.1511C22.1511 48.9038 23.7488 47.1399 25.8067 46.8459ZM14.8782 54.4639H18.7511V61.6346C16.8721 59.6662 15.5045 57.1993 14.8782 54.4639ZM22.1511 54.4639H26.024C25.3977 57.1993 24.03 59.6662 22.1511 61.6346V54.4639Z" fill="#F2C94C"/>
</svg>
